<svg width="15" height="16" fill="none" xmlns="http://www.w3.org/2000/svg"><path d="M10.288 6.824c0-1.099-.39-2.037-1.168-2.816-.779-.779-1.723-1.173-2.832-1.184-1.11-.01-2.053.384-2.832 1.184-.779.8-1.168 1.739-1.168 2.816 0 1.077.39 2.021 1.168 2.832.779.81 1.723 1.2 2.832 1.168 1.11-.032 2.053-.421 2.832-1.168.779-.747 1.168-1.69 1.168-2.832zm4.576 7.44c0 .31-.117.576-.352.8a1.146 1.146 0 01-.816.336c-.31 0-.57-.112-.784-.336l-3.056-3.056a6.14 6.14 0 01-3.568 1.104c-.853 0-1.67-.165-2.448-.496a6.113 6.113 0 01-2-1.344 6.724 6.724 0 01-1.344-2A5.78 5.78 0 010 6.824a6.39 6.39 0 011.84-4.448 5.904 5.904 0 012-1.344A6.86 6.86 0 016.288.536a5.415 5.415 0 012.448.496c.757.352 1.424.8 2 1.344a5.576 5.576 0 011.344 2.016c.32.8.485 1.61.496 2.432a6.14 6.14 0 01-1.104 3.568l3.056 3.056c.224.224.336.496.336.816z" fill="#999"/></svg>