<?xml version="1.0" encoding="utf-8"?>
<!-- Generator: Adobe Illustrator 23.0.0, SVG Export Plug-In . SVG Version: 6.00 Build 0)  -->
<svg version="1.1" id="Capa_1" xmlns="http://www.w3.org/2000/svg" xmlns:xlink="http://www.w3.org/1999/xlink" x="0px" y="0px"
	 viewBox="0 0 53 53" style="enable-background:new 0 0 53 53;" xml:space="preserve">
<style type="text/css">
	.st0{fill:#AE2070;}
	.st1{fill:#FC7ACD;}
	.st2{fill:#F948B4;}
	.st3{fill:#FFD039;}
	.st4{fill:#F99608;}
	.st5{fill:#F9CFA9;}
	.st6{fill:#FBBC8D;}
	.st7{fill:#EFE7E4;}
	.st8{fill:#D9D1D0;}
	.st9{fill:#AB2071;}
	.st10{fill:#D02E91;}
	.st11{display:none;}
	.st12{display:inline;fill:#F99608;}
	.st13{display:inline;fill:#FFD039;}
</style>
<g>
	<path class="st0" d="M25.2,0.8H4.2c-2,0-3.7,1.6-3.7,3.7v43.8c0,2,1.7,3.7,3.7,3.7h20.9c2,0,3.7-1.6,3.7-3.7V4.5
		C28.9,2.4,27.2,0.8,25.2,0.8L25.2,0.8z"/>
	<path class="st0" d="M7.6,3.5c-0.2-0.3-0.3-0.6-0.3-1c0-0.7,0.4-1.4,1.1-1.7H4.2c-2,0-3.7,1.6-3.7,3.7v43.8c0,2,1.7,3.7,3.7,3.7
		h4.5V6.7C8.7,5.6,8.3,4.5,7.6,3.5z"/>
	<path class="st1" d="M26.7,23.9v24.3c0,0.8-0.7,1.5-1.6,1.5h-21c-0.9,0-1.5-0.7-1.5-1.5V24.1h0V4.5c0-0.9,0.7-1.5,1.6-1.5h3.1
		c0.3,0,0.5,0.2,0.5,0.5c0,0.7,0.6,1.3,1.3,1.3h11.1c0.7,0,1.3-0.6,1.3-1.3c0-0.3,0.2-0.5,0.5-0.5h3.1c0.9,0,1.6,0.7,1.6,1.5
		L26.7,23.9L26.7,23.9z"/>
	<path class="st2" d="M7.9,3.7v46H4.2c-0.9,0-1.5-0.7-1.5-1.5V24.1h0V4.5c0-0.9,0.7-1.5,1.6-1.5h3.1c0.3,0,0.5,0.2,0.5,0.5
		C7.9,3.6,7.9,3.7,7.9,3.7z"/>
	<path class="st1" d="M25.2,2.9h-3.1c-0.3,0-0.5,0.2-0.5,0.5c0,0.7-0.6,1.3-1.3,1.3h-6.1l12.6,15.7V4.5C26.7,3.6,26,2.9,25.2,2.9z"
		/>
</g>
<g>
	<path class="st3" d="M25.8,15.2c-6.7,0-12.2,5.5-12.2,12.2s5.5,12.2,12.2,12.2S38,34.1,38,27.3S32.5,15.2,25.8,15.2z"/>
	<path class="st4" d="M25.8,15.2c-0.4,0-0.8,0-1.2,0.1c6.1,0.6,11,5.8,11,12.1s-4.8,11.5-11,12.1c0.4,0,0.8,0.1,1.2,0.1
		c6.7,0,12.2-5.5,12.2-12.2S32.5,15.2,25.8,15.2z"/>
	<ellipse class="st4" cx="24.8" cy="27.3" rx="7.2" ry="8.2"/>
	<path class="st3" d="M26.9,27.5c-0.4-0.6-1.1-0.9-2-1c-0.5,0-0.8-0.2-1-0.5c-0.2-0.3-0.2-0.7-0.2-1c0-0.3,0.1-0.6,0.3-0.8
		c0.2-0.2,0.6-0.3,1-0.3c0.6,0.1,0.9,1,0.9,1c0.1,0.4,0.5,0.6,0.8,0.5c0.4-0.1,0.6-0.5,0.5-0.9c0-0.1-0.1-0.5-0.4-1
		c-0.4-0.6-0.9-1-1.5-1.2v-0.9c0-0.4-0.3-0.8-0.7-0.8c-0.4,0-0.7,0.3-0.7,0.8v0.9c-0.4,0.1-0.7,0.3-0.8,0.5
		c-0.5,0.4-0.7,1.1-0.8,1.8c-0.1,0.8,0.1,1.4,0.4,2c0.3,0.5,0.8,1,1.9,1.1c0.5,0,0.9,0.2,1.1,0.5c0.2,0.2,0.2,0.5,0.2,0.8
		c0,0.4-0.2,0.7-0.4,1c-0.2,0.3-0.6,0.4-1,0.3c-0.9-0.1-1.4-1.1-1.4-1.2c-0.2-0.4-0.5-0.5-0.9-0.4c-0.3,0.2-0.5,0.6-0.3,1
		c0,0.1,0.6,1.5,1.9,1.9V33c0,0.4,0.3,0.8,0.7,0.8c0.4,0,0.7-0.3,0.7-0.8v-0.9c0.6-0.1,1-0.4,1.2-0.7c0.4-0.5,0.7-1.2,0.8-1.9
		C27.5,28.7,27.3,28.1,26.9,27.5z"/>
</g>
<g>
	<path class="st5" d="M10.1,31.2c0.9,1.1,7.5,12.5,10.3,12.5h9.8c2,0,7.5-1.9,7.5-1.9h6.2v-7h-5c0,0-2.8-2.5-5.5-2.5
		s-2.7,1.2-5.6,1.2S23.5,33,21.1,33s-3.7,0.9-3,1.5c0.5,0.5,3.1,1.7,5.8,2.4c-1.6,0.3-3.2,0.6-3.7,0.6c-1.1,0-4-4.2-5.9-6.3
		S9.2,30.1,10.1,31.2z"/>
	<path class="st6" d="M10.1,31.2c0.9,1.1,7.5,12.5,10.3,12.5h9.8c2,0,7.5-1.9,7.5-1.9h6.2v-1.1h-6.2c0,0-5.5,1.9-7.5,1.9
		c-2,0-8.8,0-9.8,0c-2.6,0-8.8-10.4-10.1-12.3C9.9,30.5,9.8,30.9,10.1,31.2z"/>
</g>
<g>
	<path class="st7" d="M46.2,43l-0.1-10.4c0-0.4-0.3-0.7-0.7-0.7l-3.8,0c-0.2,0-0.4,0.1-0.5,0.2c-0.1,0.1-0.2,0.3-0.2,0.5L41.1,43
		c0,0.2,0.1,0.4,0.2,0.5c0.1,0.1,0.3,0.2,0.5,0.2l3.8,0C45.9,43.7,46.2,43.4,46.2,43z"/>
	<path class="st8" d="M41.1,43c0,0.2,0.1,0.4,0.2,0.5c0.1,0.1,0.3,0.2,0.5,0.2l3.8,0c0.4,0,0.7-0.3,0.7-0.7l0-1.3l-5.1,0L41.1,43z"
		/>
	<path class="st9" d="M52.4,44l-0.1-12.4c0-0.2-0.1-0.4-0.2-0.5c-0.1-0.1-0.3-0.2-0.5-0.2l-6.2,0c-0.4,0-0.7,0.3-0.7,0.7L44.9,44
		c0,0.2,0.1,0.4,0.2,0.5c0.1,0.1,0.3,0.2,0.5,0.2l6.2,0C52.1,44.7,52.4,44.4,52.4,44z"/>
	<path class="st10" d="M51.7,44.7c0.4,0,0.7-0.3,0.7-0.7l0-1.3l-7.5,0l0,1.3c0,0.2,0.1,0.4,0.2,0.5c0.1,0.1,0.3,0.2,0.5,0.2
		L51.7,44.7z"/>
	<path class="st8" d="M48,41.9c0.4,0.4,1,0.4,1.3,0c0.4-0.4,0.4-1,0-1.3c-0.4-0.4-1-0.4-1.3,0C47.7,40.9,47.7,41.5,48,41.9z"/>
</g>
<g class="st11">
	<path class="st12" d="M50.8,36.3c-0.1-0.2-0.9-0.8-1.1-0.8L47.4,36l2.4-5c0.1-0.1,0.1-0.3,0-0.5s-1-0.8-1.2-0.8l-2.5,0.6h-2.3
		c-0.2,0-0.4,0.1-0.5,0.4l-2.6,7.2c0,0.1,0.7,0.6,0.8,0.7c0.1,0.1,0.3,0.1,0.4,0.1h2.2l-2.5,6.6c-0.1,0.2,0.8,0.7,1,0.8
		c0.2,0.1,0.4,0,0.6-0.1l2.9-3.6l4.5-5.7C50.8,36.6,50.8,36.4,50.8,36.3z"/>
</g>
<g class="st11">
	<path class="st13" d="M50,35.7c-0.1-0.2-0.2-0.3-0.4-0.3h-3l2.4-5c0.1-0.1,0.1-0.3,0-0.5s-0.2-0.2-0.4-0.2h-3.2H43
		c-0.2,0-0.4,0.1-0.5,0.4l-1.9,7.5c0,0.1,0,0.3,0.1,0.4c0.1,0.1,0.2,0.2,0.4,0.2h2.2l-1.7,6.9c-0.1,0.2,0,0.4,0.2,0.5
		c0.2,0.1,0.4,0,0.6-0.1l2.9-3.6l4.5-5.7C50,36.1,50,35.9,50,35.7z"/>
</g>
<path class="st3" d="M43.2,22.7h-4.1c-0.5,0-0.8-0.4-0.8-0.8v0c0-0.5,0.4-0.8,0.8-0.8h4.1c0.5,0,0.8,0.4,0.8,0.8v0
	C44.1,22.3,43.7,22.7,43.2,22.7z"/>
<path class="st3" d="M45.3,25.9H42c-0.5,0-0.8-0.4-0.8-0.8v0c0-0.5,0.4-0.8,0.8-0.8h3.3c0.5,0,0.8,0.4,0.8,0.8v0
	C46.2,25.5,45.8,25.9,45.3,25.9z"/>
<path class="st3" d="M42.3,29.2h-2.4c-0.5,0-0.8-0.4-0.8-0.8v0c0-0.5,0.4-0.8,0.8-0.8h2.4c0.5,0,0.8,0.4,0.8,0.8v0
	C43.1,28.8,42.8,29.2,42.3,29.2z"/>
</svg>
