<svg width="26" height="16" viewBox="0 0 26 16" fill="none" xmlns="http://www.w3.org/2000/svg">
<path opacity="0.5" d="M21.8815 0.657272C22.3458 0.224689 22.9598 -0.0108127 23.5942 0.000381432C24.2287 0.0115755 24.834 0.268592 25.2827 0.717282C25.7314 1.16597 25.9884 1.77131 25.9996 2.40575C26.0108 3.0402 25.7753 3.65422 25.3427 4.11846L14.7306 14.7306C14.2714 15.1892 13.649 15.4468 13 15.4468C12.351 15.4468 11.7286 15.1892 11.2694 14.7306L0.657274 4.11846C0.224691 3.65422 -0.0108129 3.0402 0.000381365 2.40575C0.0115756 1.7713 0.268595 1.16597 0.717285 0.717281C1.16598 0.268591 1.77131 0.0115745 2.40575 0.000380506C3.0402 -0.0108135 3.65422 0.224688 4.11846 0.657272L13 9.53881L21.8815 0.657272Z" fill="#013A50"/>
</svg>
