<?xml version="1.0" encoding="utf-8"?>
<!-- Generator: Adobe Illustrator 24.1.0, SVG Export Plug-In . SVG Version: 6.00 Build 0)  -->
<svg version="1.1" id="Layer_1" xmlns="http://www.w3.org/2000/svg" xmlns:xlink="http://www.w3.org/1999/xlink" x="0px" y="0px"
	 viewBox="0 0 53 53" style="enable-background:new 0 0 53 53;" xml:space="preserve">
<style type="text/css">
	.st0{fill:#AB2071;}
	.st1{fill:#D02E91;}
	.st2{fill:#9A216A;}
	.st3{fill:#FFDC81;}
	.st4{fill:#FFCB2D;}
	.st5{clip-path:url(#SVGID_2_);fill:#DDB349;}
	.st6{opacity:0.46;}
	.st7{fill:#DDB349;}
	.st8{fill:#FCC8A1;}
	.st9{fill:#F6B081;}
	.st10{fill:#EFE7E4;}
	.st11{fill:#D9D1D0;}
	.st12{fill:none;stroke:#FFCB2D;stroke-linecap:round;stroke-linejoin:round;stroke-miterlimit:10;}
</style>
<g>
	<g>
		<path class="st0" d="M1.01,38.37v14.59h34.43V38.37l-1.08-1.01H2.09L1.01,38.37z"/>
		<g>
			<path class="st1" d="M32.7,29.98c-0.14-0.41-0.52-0.69-0.96-0.69H4.71c-0.43,0-0.82,0.28-0.96,0.69l-2.69,8.07
				c-0.03,0.1-0.05,0.21-0.05,0.32h34.43c0-0.11-0.02-0.22-0.05-0.32L32.7,29.98z"/>
		</g>
		<g>
			<g>
				<g>
					<path class="st2" d="M26.97,35.35H9.49c-0.56,0-1.01-0.45-1.01-1.01s0.45-1.01,1.01-1.01h17.48c0.56,0,1.01,0.45,1.01,1.01
						S27.53,35.35,26.97,35.35z"/>
				</g>
				<circle class="st3" cx="18.23" cy="26.94" r="8.41"/>
				<circle class="st4" cx="18.23" cy="26.94" r="6.39"/>
			</g>
			<g>
				<defs>
					<circle id="SVGID_1_" cx="18.23" cy="26.94" r="8.41"/>
				</defs>
				<clipPath id="SVGID_2_">
					<use xlink:href="#SVGID_1_"  style="overflow:visible;"/>
				</clipPath>
				<path class="st5" d="M51.67,11.44L43.4,0.84c-0.12-0.15-0.3-0.26-0.49-0.28c-0.2-0.02-0.39,0.03-0.55,0.15l-5.31,4.08
					c-0.32,0.25-0.38,0.71-0.13,1.03l0.22,0.28l-2.66,2.04c-0.16,0.12-0.26,0.29-0.28,0.49c-0.02,0.14,0.02,0.28,0.08,0.41
					c-0.28,0.08-0.56,0.14-0.84,0.19c-0.61,0.11-1.47,0.24-2.46,0.38c-2.99,0.44-7.99,1.18-9.18,2.09
					c-0.87,0.68-1.74,3.19-2.57,6.12c0.99,0.14,1.94,0.44,2.84,0.86l2-2.64c0.39-0.58,1.54-0.67,2.29-0.77
					c0.45-0.05,1.16-0.02,1.71,0.32c0,0,0.24,0.13,0.42,0.24c0.59,0.35,1.39,0.84,1.84,1.72c0.12,0.25,0.11,0.54-0.02,0.78
					c-1.2,2.1-5.13,3.33-6.76,3.76c-1.36,0.36-4.01,2.13-4.43,3.38c-0.1,0.29-0.03,0.43,0.05,0.53c0.5,0.64,1.37,0.85,2.36,0.78
					c0,0-0.01,0.01-0.02,0.01c1.06-0.07,2.25-0.46,3.28-0.99c2.24-1.16,4.77-1.87,6.45-1.82c0.26,0.01,0.5,0.03,0.75,0.05
					c1.08,0.09,1.93,0.16,3.95-0.96c1.03-0.57,1.74-1.46,2.56-2.49c0.69-0.87,1.48-1.85,2.6-2.79l0.18,0.23
					c0.12,0.15,0.3,0.25,0.49,0.28c0,0,0,0,0,0s0,0,0,0c0.2,0.02,0.39-0.03,0.55-0.15l2.66-2.04l0.22,0.28
					c0.06,0.08,0.13,0.14,0.22,0.19c0.08,0.05,0.18,0.08,0.27,0.09c0.2,0.02,0.39-0.03,0.55-0.15l5.31-4.08
					C51.87,12.22,51.92,11.76,51.67,11.44z"/>
			</g>
			<g class="st6">
				<path class="st7" d="M17.76,23.33c0-0.16,0.05-0.3,0.16-0.4c0.11-0.11,0.24-0.16,0.4-0.16c0.16,0,0.3,0.05,0.41,0.16
					c0.11,0.11,0.16,0.24,0.16,0.4v0.15c0.59,0.09,1.12,0.26,1.59,0.53c0.1,0.06,0.19,0.14,0.27,0.25c0.08,0.11,0.12,0.24,0.12,0.41
					c0,0.21-0.07,0.39-0.21,0.53c-0.14,0.14-0.32,0.21-0.53,0.21c-0.14,0-0.27-0.03-0.38-0.1c-0.15-0.08-0.31-0.15-0.46-0.22
					c-0.15-0.07-0.3-0.12-0.45-0.15v1.66c0.83,0.23,1.44,0.52,1.81,0.89c0.38,0.37,0.56,0.85,0.56,1.47c0,0.31-0.06,0.58-0.17,0.83
					c-0.11,0.25-0.27,0.47-0.48,0.65c-0.2,0.19-0.45,0.34-0.73,0.45c-0.28,0.12-0.6,0.19-0.94,0.23v0.58c0,0.16-0.05,0.3-0.16,0.4
					c-0.11,0.11-0.24,0.16-0.41,0.16c-0.16,0-0.3-0.05-0.4-0.16c-0.11-0.11-0.16-0.24-0.16-0.4V31.1c-0.39-0.05-0.77-0.14-1.13-0.27
					c-0.36-0.13-0.7-0.3-1.03-0.49c-0.12-0.07-0.21-0.16-0.27-0.27c-0.07-0.11-0.1-0.24-0.1-0.38c0-0.21,0.07-0.39,0.22-0.53
					c0.15-0.14,0.32-0.21,0.54-0.21c0.15,0,0.29,0.05,0.43,0.14c0.23,0.15,0.46,0.27,0.68,0.37c0.22,0.1,0.46,0.18,0.72,0.24v-1.74
					c-0.79-0.21-1.38-0.49-1.77-0.84c-0.39-0.35-0.59-0.84-0.59-1.49c0-0.3,0.05-0.57,0.16-0.82c0.11-0.25,0.26-0.46,0.46-0.65
					c0.2-0.19,0.44-0.34,0.73-0.45c0.28-0.12,0.6-0.19,0.94-0.23V23.33z M17.06,25.52c0,0.17,0.05,0.31,0.15,0.44
					c0.1,0.12,0.3,0.24,0.6,0.35v-1.48c-0.26,0.04-0.45,0.12-0.57,0.24C17.12,25.19,17.06,25.34,17.06,25.52z M19.62,29.03
					c0-0.18-0.05-0.34-0.16-0.46c-0.11-0.13-0.31-0.24-0.62-0.35v1.52C19.36,29.66,19.62,29.43,19.62,29.03z"/>
			</g>
			<g>
				<path class="st1" d="M17.76,22.76c0-0.16,0.05-0.3,0.16-0.4c0.11-0.11,0.24-0.16,0.4-0.16c0.16,0,0.3,0.05,0.41,0.16
					c0.11,0.11,0.16,0.24,0.16,0.4v0.15c0.59,0.09,1.12,0.26,1.59,0.53c0.1,0.06,0.19,0.14,0.27,0.25c0.08,0.11,0.12,0.24,0.12,0.41
					c0,0.21-0.07,0.39-0.21,0.53c-0.14,0.14-0.32,0.21-0.53,0.21c-0.14,0-0.27-0.03-0.38-0.1c-0.15-0.08-0.31-0.15-0.46-0.22
					c-0.15-0.07-0.3-0.12-0.45-0.15v1.66c0.83,0.23,1.44,0.52,1.81,0.89c0.38,0.37,0.56,0.85,0.56,1.47c0,0.31-0.06,0.58-0.17,0.83
					c-0.11,0.25-0.27,0.47-0.48,0.65c-0.2,0.19-0.45,0.34-0.73,0.45c-0.28,0.12-0.6,0.19-0.94,0.23v0.58c0,0.16-0.05,0.3-0.16,0.4
					c-0.11,0.11-0.24,0.16-0.41,0.16c-0.16,0-0.3-0.05-0.4-0.16c-0.11-0.11-0.16-0.24-0.16-0.4v-0.59
					c-0.39-0.05-0.77-0.14-1.13-0.27c-0.36-0.13-0.7-0.3-1.03-0.49c-0.12-0.07-0.21-0.16-0.27-0.27c-0.07-0.11-0.1-0.24-0.1-0.38
					c0-0.21,0.07-0.39,0.22-0.53c0.15-0.14,0.32-0.21,0.54-0.21c0.15,0,0.29,0.05,0.43,0.14c0.23,0.15,0.46,0.27,0.68,0.37
					c0.22,0.1,0.46,0.18,0.72,0.24v-1.74c-0.79-0.21-1.38-0.49-1.77-0.84c-0.39-0.35-0.59-0.84-0.59-1.49c0-0.3,0.05-0.57,0.16-0.82
					c0.11-0.25,0.26-0.46,0.46-0.65c0.2-0.19,0.44-0.34,0.73-0.45c0.28-0.12,0.6-0.19,0.94-0.23V22.76z M17.06,24.95
					c0,0.17,0.05,0.31,0.15,0.44c0.1,0.12,0.3,0.24,0.6,0.35v-1.48c-0.26,0.04-0.45,0.12-0.57,0.24
					C17.12,24.62,17.06,24.77,17.06,24.95z M19.62,28.46c0-0.18-0.05-0.34-0.16-0.46c-0.11-0.13-0.31-0.24-0.62-0.35v1.52
					C19.36,29.09,19.62,28.86,19.62,28.46z"/>
			</g>
		</g>
	</g>
	<g>
		<path class="st8" d="M38.65,20.06c-0.82,1.03-1.53,1.92-2.56,2.49c-2.03,1.11-2.88,1.04-3.95,0.96c-0.24-0.02-0.49-0.04-0.75-0.05
			c-1.68-0.05-4.21,0.66-6.45,1.82c-1.99,1.03-4.6,1.54-5.63,0.21c-0.08-0.11-0.15-0.25-0.05-0.53c0.42-1.25,3.08-3.02,4.43-3.38
			c1.63-0.43,5.56-1.66,6.76-3.76c0.14-0.24,0.15-0.53,0.02-0.78c-0.44-0.89-1.25-1.37-1.84-1.72c-0.18-0.11-0.42-0.24-0.42-0.24
			c-0.55-0.34-1.26-0.38-1.71-0.32c-0.75,0.09-1.89,0.19-2.29,0.77l-2.5,3.91c-0.9-0.42-1.85-0.72-2.84-0.86
			c0.84-2.92,2.19-6.71,3.07-7.39c1.19-0.92,6.19-1.65,9.18-2.09c0.98-0.15,1.84-0.27,2.46-0.38c2.26-0.41,4.95-1.82,5.99-2.4
			c1.23,0.81,5,3.77,4.55,9.14C41.26,16.78,39.82,18.59,38.65,20.06z"/>
		<path class="st9" d="M39.45,14.76c-1.78,1.75-2.65,3.05-5.4,5.24c-2.5,1.98-8.6,2.52-12.39,6.27c1.06-0.07,2.25-0.46,3.28-0.99
			c2.24-1.16,4.77-1.87,6.45-1.82c0.26,0.01,0.5,0.03,0.75,0.05c1.08,0.09,1.93,0.16,3.95-0.96c1.03-0.57,1.74-1.46,2.56-2.49
			c1.17-1.47,2.61-3.28,5.49-4.61c0.13-1.55-0.11-2.88-0.52-4.04C42,12.49,40.5,13.73,39.45,14.76z"/>
		<g>
			<path class="st10" d="M45.84,14.13l-6.93-8.87c-0.25-0.32-0.72-0.38-1.04-0.13l-3.24,2.49c-0.16,0.12-0.26,0.29-0.28,0.49
				C34.33,8.3,34.38,8.5,34.5,8.65l6.93,8.87c0.12,0.15,0.3,0.25,0.49,0.28s0.39-0.03,0.55-0.15l3.24-2.49
				C46.04,14.91,46.1,14.45,45.84,14.13z"/>
			<path class="st11" d="M41.43,17.52c0.12,0.15,0.3,0.25,0.49,0.28c0.2,0.02,0.39-0.03,0.55-0.15l3.24-2.49
				c0.32-0.25,0.38-0.71,0.13-1.03l-0.86-1.1l-4.42,3.39L41.43,17.52z"/>
			<path class="st0" d="M51.83,10.92L43.56,0.32c-0.12-0.15-0.3-0.25-0.49-0.28c-0.2-0.02-0.39,0.03-0.55,0.15l-5.31,4.08
				c-0.32,0.25-0.38,0.71-0.13,1.03l8.27,10.59c0.12,0.15,0.3,0.25,0.49,0.28c0.2,0.02,0.39-0.03,0.55-0.15l5.31-4.08
				C52.02,11.7,52.08,11.24,51.83,10.92z"/>
			<path class="st1" d="M51.7,11.95c0.32-0.25,0.38-0.71,0.13-1.03l-0.86-1.1l-6.49,4.98l0.86,1.1c0.12,0.15,0.3,0.25,0.49,0.28
				c0.2,0.02,0.39-0.03,0.55-0.15L51.7,11.95z"/>
			<path class="st11" d="M46.68,12.01c0.57,0.07,1.09-0.33,1.16-0.89c0.07-0.56-0.33-1.08-0.9-1.15c-0.57-0.07-1.09,0.33-1.16,0.89
				C45.71,11.42,46.11,11.94,46.68,12.01z"/>
		</g>
	</g>
	<g>
		<path class="st2" d="M6.74,44.56l-0.56,0.14c-0.04,0.01-0.09,0.03-0.14,0.03c-0.05,0.01-0.1,0.01-0.14,0.01
			c-0.19,0-0.35-0.07-0.49-0.2c-0.14-0.14-0.21-0.3-0.21-0.48c0-0.16,0.05-0.3,0.15-0.43c0.1-0.13,0.23-0.21,0.39-0.26l1.03-0.3
			c0.15-0.04,0.29-0.07,0.41-0.1c0.12-0.02,0.23-0.04,0.34-0.04h0.02c0.22,0,0.41,0.08,0.56,0.23c0.15,0.15,0.23,0.34,0.23,0.56
			v5.87c0,0.22-0.08,0.41-0.23,0.56c-0.15,0.15-0.34,0.23-0.56,0.23c-0.22,0-0.41-0.08-0.56-0.23c-0.15-0.15-0.23-0.34-0.23-0.56
			V44.56z"/>
		<path class="st2" d="M13.08,50.46c-0.49,0-0.94-0.1-1.33-0.29c-0.4-0.19-0.73-0.45-1.02-0.79c-0.28-0.34-0.5-0.73-0.65-1.19
			c-0.15-0.46-0.23-0.95-0.23-1.48v-0.02c0-0.53,0.08-1.02,0.23-1.48c0.16-0.46,0.38-0.86,0.66-1.2c0.28-0.34,0.63-0.61,1.03-0.8
			c0.4-0.19,0.84-0.29,1.33-0.29c0.48,0,0.92,0.09,1.32,0.29c0.4,0.19,0.74,0.45,1.02,0.79c0.28,0.34,0.5,0.73,0.66,1.19
			c0.16,0.46,0.23,0.95,0.23,1.48v0.02c0,0.53-0.08,1.02-0.23,1.48c-0.16,0.46-0.38,0.86-0.66,1.2s-0.63,0.61-1.03,0.8
			C14.01,50.36,13.56,50.46,13.08,50.46z M13.1,49.01c0.24,0,0.46-0.06,0.66-0.17c0.19-0.12,0.36-0.28,0.5-0.48s0.24-0.45,0.32-0.73
			c0.07-0.28,0.11-0.59,0.11-0.92v-0.02c0-0.33-0.04-0.64-0.11-0.92c-0.08-0.28-0.19-0.53-0.33-0.73c-0.14-0.21-0.31-0.37-0.51-0.49
			c-0.2-0.12-0.41-0.18-0.65-0.18c-0.24,0-0.46,0.06-0.66,0.17c-0.19,0.12-0.36,0.28-0.49,0.48c-0.14,0.21-0.24,0.45-0.32,0.73
			c-0.08,0.28-0.11,0.59-0.11,0.92v0.02c0,0.33,0.04,0.64,0.11,0.93c0.08,0.28,0.18,0.53,0.32,0.73c0.14,0.2,0.31,0.37,0.51,0.48
			C12.63,48.95,12.86,49.01,13.1,49.01z"/>
		<path class="st2" d="M20.68,50.46c-0.49,0-0.94-0.1-1.33-0.29c-0.4-0.19-0.73-0.45-1.02-0.79c-0.28-0.34-0.5-0.73-0.65-1.19
			c-0.15-0.46-0.23-0.95-0.23-1.48v-0.02c0-0.53,0.08-1.02,0.23-1.48c0.16-0.46,0.38-0.86,0.66-1.2c0.28-0.34,0.63-0.61,1.03-0.8
			c0.4-0.19,0.84-0.29,1.33-0.29c0.48,0,0.92,0.09,1.32,0.29c0.4,0.19,0.74,0.45,1.02,0.79c0.28,0.34,0.5,0.73,0.66,1.19
			c0.16,0.46,0.23,0.95,0.23,1.48v0.02c0,0.53-0.08,1.02-0.23,1.48c-0.16,0.46-0.38,0.86-0.66,1.2s-0.63,0.61-1.03,0.8
			C21.61,50.36,21.17,50.46,20.68,50.46z M20.7,49.01c0.24,0,0.46-0.06,0.66-0.17c0.19-0.12,0.36-0.28,0.5-0.48s0.24-0.45,0.32-0.73
			c0.07-0.28,0.11-0.59,0.11-0.92v-0.02c0-0.33-0.04-0.64-0.11-0.92c-0.08-0.28-0.19-0.53-0.33-0.73c-0.14-0.21-0.31-0.37-0.51-0.49
			c-0.2-0.12-0.41-0.18-0.65-0.18c-0.24,0-0.46,0.06-0.66,0.17c-0.19,0.12-0.36,0.28-0.49,0.48c-0.14,0.21-0.24,0.45-0.32,0.73
			c-0.08,0.28-0.11,0.59-0.11,0.92v0.02c0,0.33,0.04,0.64,0.11,0.93c0.08,0.28,0.18,0.53,0.32,0.73c0.14,0.2,0.31,0.37,0.51,0.48
			C20.24,48.95,20.46,49.01,20.7,49.01z"/>
		<path class="st2" d="M28.28,50.46c-0.49,0-0.94-0.1-1.33-0.29c-0.4-0.19-0.73-0.45-1.02-0.79c-0.28-0.34-0.5-0.73-0.65-1.19
			c-0.15-0.46-0.23-0.95-0.23-1.48v-0.02c0-0.53,0.08-1.02,0.23-1.48c0.16-0.46,0.38-0.86,0.66-1.2c0.28-0.34,0.63-0.61,1.03-0.8
			c0.4-0.19,0.84-0.29,1.33-0.29c0.48,0,0.92,0.09,1.32,0.29c0.4,0.19,0.74,0.45,1.02,0.79c0.28,0.34,0.5,0.73,0.66,1.19
			c0.16,0.46,0.23,0.95,0.23,1.48v0.02c0,0.53-0.08,1.02-0.23,1.48c-0.16,0.46-0.38,0.86-0.66,1.2c-0.28,0.34-0.63,0.61-1.03,0.8
			C29.21,50.36,28.77,50.46,28.28,50.46z M28.3,49.01c0.24,0,0.46-0.06,0.66-0.17c0.2-0.12,0.36-0.28,0.5-0.48
			c0.14-0.2,0.25-0.45,0.32-0.73c0.07-0.28,0.11-0.59,0.11-0.92v-0.02c0-0.33-0.04-0.64-0.11-0.92c-0.08-0.28-0.19-0.53-0.33-0.73
			c-0.14-0.21-0.31-0.37-0.51-0.49c-0.2-0.12-0.41-0.18-0.65-0.18c-0.24,0-0.46,0.06-0.66,0.17c-0.2,0.12-0.36,0.28-0.5,0.48
			c-0.13,0.21-0.24,0.45-0.32,0.73c-0.08,0.28-0.11,0.59-0.11,0.92v0.02c0,0.33,0.04,0.64,0.11,0.93c0.08,0.28,0.18,0.53,0.32,0.73
			c0.14,0.2,0.31,0.37,0.51,0.48C27.84,48.95,28.06,49.01,28.3,49.01z"/>
	</g>
	<g>
		<path class="st4" d="M6.74,43.61l-0.56,0.14c-0.04,0.01-0.09,0.03-0.14,0.03c-0.05,0.01-0.1,0.01-0.14,0.01
			c-0.19,0-0.35-0.07-0.49-0.2c-0.14-0.14-0.21-0.3-0.21-0.48c0-0.16,0.05-0.3,0.15-0.43c0.1-0.13,0.23-0.21,0.39-0.26l1.03-0.3
			c0.15-0.04,0.29-0.07,0.41-0.1C7.29,42,7.4,41.99,7.52,41.99h0.02c0.22,0,0.41,0.08,0.56,0.23c0.15,0.15,0.23,0.34,0.23,0.56v5.87
			c0,0.22-0.08,0.41-0.23,0.56c-0.15,0.15-0.34,0.23-0.56,0.23c-0.22,0-0.41-0.08-0.56-0.23c-0.15-0.15-0.23-0.34-0.23-0.56V43.61z"
			/>
		<path class="st4" d="M13.08,49.51c-0.49,0-0.94-0.1-1.33-0.29c-0.4-0.19-0.73-0.45-1.02-0.79c-0.28-0.34-0.5-0.73-0.65-1.19
			c-0.15-0.46-0.23-0.95-0.23-1.48v-0.02c0-0.53,0.08-1.02,0.23-1.48c0.16-0.46,0.38-0.86,0.66-1.2c0.28-0.34,0.63-0.61,1.03-0.8
			c0.4-0.19,0.84-0.29,1.33-0.29c0.48,0,0.92,0.09,1.32,0.29c0.4,0.19,0.74,0.45,1.02,0.79c0.28,0.34,0.5,0.73,0.66,1.19
			c0.16,0.46,0.23,0.95,0.23,1.48v0.02c0,0.53-0.08,1.02-0.23,1.48c-0.16,0.46-0.38,0.86-0.66,1.2s-0.63,0.61-1.03,0.8
			C14.01,49.41,13.56,49.51,13.08,49.51z M13.1,48.06c0.24,0,0.46-0.06,0.66-0.17c0.19-0.12,0.36-0.28,0.5-0.48s0.24-0.45,0.32-0.73
			c0.07-0.28,0.11-0.59,0.11-0.92v-0.02c0-0.33-0.04-0.64-0.11-0.92c-0.08-0.28-0.19-0.53-0.33-0.73c-0.14-0.21-0.31-0.37-0.51-0.49
			s-0.41-0.18-0.65-0.18c-0.24,0-0.46,0.06-0.66,0.17c-0.19,0.12-0.36,0.28-0.49,0.48c-0.14,0.21-0.24,0.45-0.32,0.73
			c-0.08,0.28-0.11,0.59-0.11,0.92v0.02c0,0.33,0.04,0.64,0.11,0.93c0.08,0.28,0.18,0.53,0.32,0.73c0.14,0.2,0.31,0.37,0.51,0.48
			C12.63,48,12.86,48.06,13.1,48.06z"/>
		<path class="st4" d="M20.68,49.51c-0.49,0-0.94-0.1-1.33-0.29c-0.4-0.19-0.73-0.45-1.02-0.79c-0.28-0.34-0.5-0.73-0.65-1.19
			c-0.15-0.46-0.23-0.95-0.23-1.48v-0.02c0-0.53,0.08-1.02,0.23-1.48c0.16-0.46,0.38-0.86,0.66-1.2c0.28-0.34,0.63-0.61,1.03-0.8
			c0.4-0.19,0.84-0.29,1.33-0.29c0.48,0,0.92,0.09,1.32,0.29c0.4,0.19,0.74,0.45,1.02,0.79c0.28,0.34,0.5,0.73,0.66,1.19
			c0.16,0.46,0.23,0.95,0.23,1.48v0.02c0,0.53-0.08,1.02-0.23,1.48c-0.16,0.46-0.38,0.86-0.66,1.2s-0.63,0.61-1.03,0.8
			C21.61,49.41,21.17,49.51,20.68,49.51z M20.7,48.06c0.24,0,0.46-0.06,0.66-0.17c0.19-0.12,0.36-0.28,0.5-0.48s0.24-0.45,0.32-0.73
			c0.07-0.28,0.11-0.59,0.11-0.92v-0.02c0-0.33-0.04-0.64-0.11-0.92c-0.08-0.28-0.19-0.53-0.33-0.73c-0.14-0.21-0.31-0.37-0.51-0.49
			c-0.2-0.12-0.41-0.18-0.65-0.18c-0.24,0-0.46,0.06-0.66,0.17c-0.19,0.12-0.36,0.28-0.49,0.48c-0.14,0.21-0.24,0.45-0.32,0.73
			c-0.08,0.28-0.11,0.59-0.11,0.92v0.02c0,0.33,0.04,0.64,0.11,0.93c0.08,0.28,0.18,0.53,0.32,0.73c0.14,0.2,0.31,0.37,0.51,0.48
			C20.24,48,20.46,48.06,20.7,48.06z"/>
		<path class="st4" d="M28.28,49.51c-0.49,0-0.94-0.1-1.33-0.29c-0.4-0.19-0.73-0.45-1.02-0.79c-0.28-0.34-0.5-0.73-0.65-1.19
			c-0.15-0.46-0.23-0.95-0.23-1.48v-0.02c0-0.53,0.08-1.02,0.23-1.48c0.16-0.46,0.38-0.86,0.66-1.2c0.28-0.34,0.63-0.61,1.03-0.8
			c0.4-0.19,0.84-0.29,1.33-0.29c0.48,0,0.92,0.09,1.32,0.29c0.4,0.19,0.74,0.45,1.02,0.79c0.28,0.34,0.5,0.73,0.66,1.19
			c0.16,0.46,0.23,0.95,0.23,1.48v0.02c0,0.53-0.08,1.02-0.23,1.48c-0.16,0.46-0.38,0.86-0.66,1.2c-0.28,0.34-0.63,0.61-1.03,0.8
			S28.77,49.51,28.28,49.51z M28.3,48.06c0.24,0,0.46-0.06,0.66-0.17c0.2-0.12,0.36-0.28,0.5-0.48c0.14-0.2,0.25-0.45,0.32-0.73
			c0.07-0.28,0.11-0.59,0.11-0.92v-0.02c0-0.33-0.04-0.64-0.11-0.92c-0.08-0.28-0.19-0.53-0.33-0.73c-0.14-0.21-0.31-0.37-0.51-0.49
			c-0.2-0.12-0.41-0.18-0.65-0.18c-0.24,0-0.46,0.06-0.66,0.17c-0.2,0.12-0.36,0.28-0.5,0.48c-0.13,0.21-0.24,0.45-0.32,0.73
			c-0.08,0.28-0.11,0.59-0.11,0.92v0.02c0,0.33,0.04,0.64,0.11,0.93c0.08,0.28,0.18,0.53,0.32,0.73c0.14,0.2,0.31,0.37,0.51,0.48
			C27.84,48,28.06,48.06,28.3,48.06z"/>
	</g>
	<line class="st12" x1="7.4" y1="15.53" x2="10.31" y2="18.8"/>
	<line class="st12" x1="12.56" y1="15.63" x2="12.93" y2="17.79"/>
	<line class="st12" x1="6.71" y1="20.81" x2="8.85" y2="21.26"/>
</g>
</svg>
